<mxfile host="app.diagrams.net" agent="Mozilla/5.0 (X11; Linux x86_64) AppleWebKit/537.36 (KHTML, like Gecko) Chrome/136.0.0.0 Safari/537.36" version="27.1.0">
  <diagram name="PÃ¡gina-1" id="GT4gr5ATXs1vUbu3qef9">
    <mxGraphModel grid="1" page="1" gridSize="10" guides="1" tooltips="1" connect="1" arrows="1" fold="1" pageScale="1" pageWidth="1169" pageHeight="1654" math="0" shadow="0">
      <root>
        <mxCell id="0" />
        <mxCell id="1" parent="0" />
        <mxCell id="XwQzrcVXaw-KRtIy5MGL-1" value="Inicio" style="whiteSpace=wrap;strokeWidth=2;" vertex="1" parent="1">
          <mxGeometry x="499" y="20" width="97" height="54" as="geometry" />
        </mxCell>
        <mxCell id="XwQzrcVXaw-KRtIy5MGL-2" value="Inicializa Perifericos" style="whiteSpace=wrap;strokeWidth=2;" vertex="1" parent="1">
          <mxGeometry x="447" y="124" width="201" height="54" as="geometry" />
        </mxCell>
        <mxCell id="XwQzrcVXaw-KRtIy5MGL-3" value="Crea tareas" style="rhombus;strokeWidth=2;whiteSpace=wrap;" vertex="1" parent="1">
          <mxGeometry x="364" y="228" width="138" height="138" as="geometry" />
        </mxCell>
        <mxCell id="XwQzrcVXaw-KRtIy5MGL-4" value="Task ECG" style="whiteSpace=wrap;strokeWidth=2;" vertex="1" parent="1">
          <mxGeometry x="150" y="416" width="132" height="54" as="geometry" />
        </mxCell>
        <mxCell id="XwQzrcVXaw-KRtIy5MGL-5" value="Task PPG" style="whiteSpace=wrap;strokeWidth=2;" vertex="1" parent="1">
          <mxGeometry x="460" y="416" width="131" height="54" as="geometry" />
        </mxCell>
        <mxCell id="XwQzrcVXaw-KRtIy5MGL-6" value="Espera notificacion timer ECG" style="whiteSpace=wrap;strokeWidth=2;" vertex="1" parent="1">
          <mxGeometry x="86" y="520" width="260" height="78" as="geometry" />
        </mxCell>
        <mxCell id="XwQzrcVXaw-KRtIy5MGL-7" value="Lee dato ECG" style="whiteSpace=wrap;strokeWidth=2;" vertex="1" parent="1">
          <mxGeometry x="30" y="648" width="161" height="54" as="geometry" />
        </mxCell>
        <mxCell id="XwQzrcVXaw-KRtIy5MGL-8" value="Guarda en buffer" style="whiteSpace=wrap;strokeWidth=2;" vertex="1" parent="1">
          <mxGeometry x="20" y="773" width="181" height="54" as="geometry" />
        </mxCell>
        <mxCell id="XwQzrcVXaw-KRtIy5MGL-9" value="Buffer lleno" style="rhombus;strokeWidth=2;whiteSpace=wrap;" vertex="1" parent="1">
          <mxGeometry x="106" y="877" width="135" height="135" as="geometry" />
        </mxCell>
        <mxCell id="XwQzrcVXaw-KRtIy5MGL-10" value="Filtra ECG" style="whiteSpace=wrap;strokeWidth=2;" vertex="1" parent="1">
          <mxGeometry x="106" y="1082" width="135" height="54" as="geometry" />
        </mxCell>
        <mxCell id="XwQzrcVXaw-KRtIy5MGL-11" value="Prepara mensaje BLE" style="whiteSpace=wrap;strokeWidth=2;" vertex="1" parent="1">
          <mxGeometry x="65" y="1186" width="217" height="54" as="geometry" />
        </mxCell>
        <mxCell id="XwQzrcVXaw-KRtIy5MGL-12" value="Envia por BLE" style="whiteSpace=wrap;strokeWidth=2;" vertex="1" parent="1">
          <mxGeometry x="141" y="1290" width="162" height="54" as="geometry" />
        </mxCell>
        <mxCell id="XwQzrcVXaw-KRtIy5MGL-13" value="Espera notificacion timer PPG" style="whiteSpace=wrap;strokeWidth=2;" vertex="1" parent="1">
          <mxGeometry x="396" y="520" width="260" height="78" as="geometry" />
        </mxCell>
        <mxCell id="XwQzrcVXaw-KRtIy5MGL-14" value="Lee dato PPG" style="whiteSpace=wrap;strokeWidth=2;" vertex="1" parent="1">
          <mxGeometry x="382" y="648" width="161" height="54" as="geometry" />
        </mxCell>
        <mxCell id="XwQzrcVXaw-KRtIy5MGL-15" value="Filtra PPG" style="whiteSpace=wrap;strokeWidth=2;" vertex="1" parent="1">
          <mxGeometry x="396" y="773" width="134" height="54" as="geometry" />
        </mxCell>
        <mxCell id="XwQzrcVXaw-KRtIy5MGL-16" value="Prepara mensaje" style="whiteSpace=wrap;strokeWidth=2;" vertex="1" parent="1">
          <mxGeometry x="372" y="917" width="182" height="54" as="geometry" />
        </mxCell>
        <mxCell id="XwQzrcVXaw-KRtIy5MGL-17" value="Envia por BLE y consola" style="whiteSpace=wrap;strokeWidth=2;" vertex="1" parent="1">
          <mxGeometry x="409" y="1082" width="234" height="54" as="geometry" />
        </mxCell>
        <mxCell id="XwQzrcVXaw-KRtIy5MGL-18" value="Loop principal LED BT" style="whiteSpace=wrap;strokeWidth=2;" vertex="1" parent="1">
          <mxGeometry x="638" y="270" width="220" height="54" as="geometry" />
        </mxCell>
        <mxCell id="XwQzrcVXaw-KRtIy5MGL-19" value="" style="whiteSpace=wrap;strokeWidth=2;" vertex="1" parent="1">
          <mxGeometry x="673" y="443" as="geometry" />
        </mxCell>
        <mxCell id="XwQzrcVXaw-KRtIy5MGL-20" value="" style="whiteSpace=wrap;strokeWidth=2;" vertex="1" parent="1">
          <mxGeometry x="748" y="559" as="geometry" />
        </mxCell>
        <mxCell id="XwQzrcVXaw-KRtIy5MGL-21" value="" style="curved=1;startArrow=none;endArrow=block;exitX=0.5;exitY=1;entryX=0.5;entryY=0;rounded=0;" edge="1" parent="1" source="XwQzrcVXaw-KRtIy5MGL-1" target="XwQzrcVXaw-KRtIy5MGL-2">
          <mxGeometry relative="1" as="geometry">
            <Array as="points" />
          </mxGeometry>
        </mxCell>
        <mxCell id="XwQzrcVXaw-KRtIy5MGL-22" value="" style="curved=1;startArrow=none;endArrow=block;exitX=0.21;exitY=1;entryX=0.5;entryY=0;rounded=0;" edge="1" parent="1" source="XwQzrcVXaw-KRtIy5MGL-2" target="XwQzrcVXaw-KRtIy5MGL-3">
          <mxGeometry relative="1" as="geometry">
            <Array as="points">
              <mxPoint x="433" y="203" />
            </Array>
          </mxGeometry>
        </mxCell>
        <mxCell id="XwQzrcVXaw-KRtIy5MGL-23" value="" style="curved=1;startArrow=none;endArrow=block;exitX=0;exitY=0.71;entryX=0.5;entryY=-0.01;rounded=0;" edge="1" parent="1" source="XwQzrcVXaw-KRtIy5MGL-3" target="XwQzrcVXaw-KRtIy5MGL-4">
          <mxGeometry relative="1" as="geometry">
            <Array as="points">
              <mxPoint x="216" y="391" />
            </Array>
          </mxGeometry>
        </mxCell>
        <mxCell id="XwQzrcVXaw-KRtIy5MGL-24" value="" style="curved=1;startArrow=none;endArrow=block;exitX=0.99;exitY=1;entryX=0.5;entryY=-0.01;rounded=0;" edge="1" parent="1" source="XwQzrcVXaw-KRtIy5MGL-3" target="XwQzrcVXaw-KRtIy5MGL-5">
          <mxGeometry relative="1" as="geometry">
            <Array as="points">
              <mxPoint x="526" y="391" />
            </Array>
          </mxGeometry>
        </mxCell>
        <mxCell id="XwQzrcVXaw-KRtIy5MGL-25" value="" style="curved=1;startArrow=none;endArrow=block;exitX=0.5;exitY=0.99;entryX=0.5;entryY=-0.01;rounded=0;" edge="1" parent="1" source="XwQzrcVXaw-KRtIy5MGL-4" target="XwQzrcVXaw-KRtIy5MGL-6">
          <mxGeometry relative="1" as="geometry">
            <Array as="points" />
          </mxGeometry>
        </mxCell>
        <mxCell id="XwQzrcVXaw-KRtIy5MGL-26" value="" style="curved=1;startArrow=none;endArrow=block;exitX=0.25;exitY=0.99;entryX=0.5;entryY=-0.01;rounded=0;" edge="1" parent="1" source="XwQzrcVXaw-KRtIy5MGL-6" target="XwQzrcVXaw-KRtIy5MGL-7">
          <mxGeometry relative="1" as="geometry">
            <Array as="points">
              <mxPoint x="110" y="623" />
            </Array>
          </mxGeometry>
        </mxCell>
        <mxCell id="XwQzrcVXaw-KRtIy5MGL-27" value="" style="curved=1;startArrow=none;endArrow=block;exitX=0.5;exitY=0.99;entryX=0.5;entryY=-0.01;rounded=0;" edge="1" parent="1" source="XwQzrcVXaw-KRtIy5MGL-7" target="XwQzrcVXaw-KRtIy5MGL-8">
          <mxGeometry relative="1" as="geometry">
            <Array as="points" />
          </mxGeometry>
        </mxCell>
        <mxCell id="XwQzrcVXaw-KRtIy5MGL-28" value="" style="curved=1;startArrow=none;endArrow=block;exitX=0.5;exitY=0.99;entryX=0.16;entryY=0;rounded=0;" edge="1" parent="1" source="XwQzrcVXaw-KRtIy5MGL-8" target="XwQzrcVXaw-KRtIy5MGL-9">
          <mxGeometry relative="1" as="geometry">
            <Array as="points">
              <mxPoint x="110" y="852" />
            </Array>
          </mxGeometry>
        </mxCell>
        <mxCell id="XwQzrcVXaw-KRtIy5MGL-29" value="No" style="curved=1;startArrow=none;endArrow=block;exitX=0.83;exitY=0;entryX=0.55;entryY=0.99;rounded=0;" edge="1" parent="1" source="XwQzrcVXaw-KRtIy5MGL-9" target="XwQzrcVXaw-KRtIy5MGL-6">
          <mxGeometry relative="1" as="geometry">
            <Array as="points">
              <mxPoint x="236" y="852" />
              <mxPoint x="236" y="623" />
            </Array>
          </mxGeometry>
        </mxCell>
        <mxCell id="XwQzrcVXaw-KRtIy5MGL-30" value="Si" style="curved=1;startArrow=none;endArrow=block;exitX=0.5;exitY=0.99;entryX=0.5;entryY=0;rounded=0;" edge="1" parent="1" source="XwQzrcVXaw-KRtIy5MGL-9" target="XwQzrcVXaw-KRtIy5MGL-10">
          <mxGeometry relative="1" as="geometry">
            <Array as="points" />
          </mxGeometry>
        </mxCell>
        <mxCell id="XwQzrcVXaw-KRtIy5MGL-31" value="" style="curved=1;startArrow=none;endArrow=block;exitX=0.5;exitY=1;entryX=0.5;entryY=0;rounded=0;" edge="1" parent="1" source="XwQzrcVXaw-KRtIy5MGL-10" target="XwQzrcVXaw-KRtIy5MGL-11">
          <mxGeometry relative="1" as="geometry">
            <Array as="points" />
          </mxGeometry>
        </mxCell>
        <mxCell id="XwQzrcVXaw-KRtIy5MGL-32" value="" style="curved=1;startArrow=none;endArrow=block;exitX=0.5;exitY=1;entryX=0.34;entryY=0;rounded=0;" edge="1" parent="1" source="XwQzrcVXaw-KRtIy5MGL-11" target="XwQzrcVXaw-KRtIy5MGL-12">
          <mxGeometry relative="1" as="geometry">
            <Array as="points">
              <mxPoint x="173" y="1265" />
            </Array>
          </mxGeometry>
        </mxCell>
        <mxCell id="XwQzrcVXaw-KRtIy5MGL-33" value="" style="curved=1;startArrow=none;endArrow=block;exitX=0.83;exitY=0;entryX=0.75;entryY=0.99;rounded=0;" edge="1" parent="1" source="XwQzrcVXaw-KRtIy5MGL-12" target="XwQzrcVXaw-KRtIy5MGL-6">
          <mxGeometry relative="1" as="geometry">
            <Array as="points">
              <mxPoint x="324" y="1265" />
              <mxPoint x="324" y="623" />
            </Array>
          </mxGeometry>
        </mxCell>
        <mxCell id="XwQzrcVXaw-KRtIy5MGL-34" value="" style="curved=1;startArrow=none;endArrow=block;exitX=0.5;exitY=0.99;entryX=0.5;entryY=-0.01;rounded=0;" edge="1" parent="1" source="XwQzrcVXaw-KRtIy5MGL-5" target="XwQzrcVXaw-KRtIy5MGL-13">
          <mxGeometry relative="1" as="geometry">
            <Array as="points" />
          </mxGeometry>
        </mxCell>
        <mxCell id="XwQzrcVXaw-KRtIy5MGL-35" value="" style="curved=1;startArrow=none;endArrow=block;exitX=0.35;exitY=0.99;entryX=0.5;entryY=-0.01;rounded=0;" edge="1" parent="1" source="XwQzrcVXaw-KRtIy5MGL-13" target="XwQzrcVXaw-KRtIy5MGL-14">
          <mxGeometry relative="1" as="geometry">
            <Array as="points">
              <mxPoint x="463" y="623" />
            </Array>
          </mxGeometry>
        </mxCell>
        <mxCell id="XwQzrcVXaw-KRtIy5MGL-36" value="" style="curved=1;startArrow=none;endArrow=block;exitX=0.5;exitY=0.99;entryX=0.5;entryY=-0.01;rounded=0;" edge="1" parent="1" source="XwQzrcVXaw-KRtIy5MGL-14" target="XwQzrcVXaw-KRtIy5MGL-15">
          <mxGeometry relative="1" as="geometry">
            <Array as="points" />
          </mxGeometry>
        </mxCell>
        <mxCell id="XwQzrcVXaw-KRtIy5MGL-37" value="" style="curved=1;startArrow=none;endArrow=block;exitX=0.5;exitY=0.99;entryX=0.5;entryY=0;rounded=0;" edge="1" parent="1" source="XwQzrcVXaw-KRtIy5MGL-15" target="XwQzrcVXaw-KRtIy5MGL-16">
          <mxGeometry relative="1" as="geometry">
            <Array as="points" />
          </mxGeometry>
        </mxCell>
        <mxCell id="XwQzrcVXaw-KRtIy5MGL-38" value="" style="curved=1;startArrow=none;endArrow=block;exitX=0.5;exitY=1;entryX=0.38;entryY=0;rounded=0;" edge="1" parent="1" source="XwQzrcVXaw-KRtIy5MGL-16" target="XwQzrcVXaw-KRtIy5MGL-17">
          <mxGeometry relative="1" as="geometry">
            <Array as="points">
              <mxPoint x="463" y="1047" />
            </Array>
          </mxGeometry>
        </mxCell>
        <mxCell id="XwQzrcVXaw-KRtIy5MGL-39" value="" style="curved=1;startArrow=none;endArrow=block;exitX=0.62;exitY=0;entryX=0.65;entryY=0.99;rounded=0;" edge="1" parent="1" source="XwQzrcVXaw-KRtIy5MGL-17" target="XwQzrcVXaw-KRtIy5MGL-13">
          <mxGeometry relative="1" as="geometry">
            <Array as="points">
              <mxPoint x="589" y="1047" />
              <mxPoint x="589" y="623" />
            </Array>
          </mxGeometry>
        </mxCell>
        <mxCell id="XwQzrcVXaw-KRtIy5MGL-40" value="" style="curved=1;startArrow=none;endArrow=block;exitX=1;exitY=0.98;entryX=0.5;entryY=0;rounded=0;" edge="1" parent="1" source="XwQzrcVXaw-KRtIy5MGL-2" target="XwQzrcVXaw-KRtIy5MGL-18">
          <mxGeometry relative="1" as="geometry">
            <Array as="points">
              <mxPoint x="748" y="203" />
            </Array>
          </mxGeometry>
        </mxCell>
        <mxCell id="XwQzrcVXaw-KRtIy5MGL-41" value="" style="curved=1;startArrow=none;endArrow=none;exitX=0.4;exitY=1;entryX=Infinity;entryY=-Infinity;rounded=0;" edge="1" parent="1" source="XwQzrcVXaw-KRtIy5MGL-18" target="XwQzrcVXaw-KRtIy5MGL-19">
          <mxGeometry relative="1" as="geometry">
            <Array as="points">
              <mxPoint x="674" y="391" />
            </Array>
          </mxGeometry>
        </mxCell>
        <mxCell id="XwQzrcVXaw-KRtIy5MGL-42" value="" style="curved=1;startArrow=none;endArrow=none;exitX=Infinity;exitY=-Infinity;entryX=-Infinity;entryY=-Infinity;rounded=0;" edge="1" parent="1" source="XwQzrcVXaw-KRtIy5MGL-19" target="XwQzrcVXaw-KRtIy5MGL-20">
          <mxGeometry relative="1" as="geometry">
            <Array as="points">
              <mxPoint x="674" y="495" />
            </Array>
          </mxGeometry>
        </mxCell>
        <mxCell id="XwQzrcVXaw-KRtIy5MGL-43" value="" style="curved=1;startArrow=none;endArrow=block;exitX=-Infinity;exitY=-Infinity;entryX=0.5;entryY=1;rounded=0;" edge="1" parent="1" source="XwQzrcVXaw-KRtIy5MGL-20" target="XwQzrcVXaw-KRtIy5MGL-18">
          <mxGeometry relative="1" as="geometry">
            <Array as="points" />
          </mxGeometry>
        </mxCell>
      </root>
    </mxGraphModel>
  </diagram>
</mxfile>
